<svg version="1.1" xmlns="http://www.w3.org/2000/svg" style="display: block;" viewBox="0 0 2048 2048" width="1024" height="1024" preserveAspectRatio="none">
<path transform="translate(0,0)" fill="rgb(30,64,175)" d="M 612.928 845.232 C 622.864 845.915 678.804 877.639 685.27 884.548 C 685.959 887.368 687.072 890.473 686.955 898.288 C 685.678 983.974 689.429 1070.79 684.847 1156.14 C 684.703 1158.81 624.466 1192.71 618.171 1195.53 C 617.718 1195.58 614.426 1195.94 614.019 1195.8 C 602.549 1192.06 551.832 1162.73 546.07 1156.99 C 544.752 1153.95 544.166 1150.01 544.172 1146.7 C 544.328 1059.53 542.978 971.99 544.185 884.844 C 552.243 878.085 603.454 848.1 612.928 845.232 z M 564.11 1145.94 C 570.169 1149.14 601.679 1167.85 604.852 1167.59 L 605.776 1005.13 C 605.806 981.044 606.195 955.025 605.122 931.113 C 591.303 922.312 577.303 915.913 563.754 907.614 C 564.048 985.725 562.08 1068.39 564.11 1145.94 z M 627.503 975.322 L 627.264 977.112 C 626.041 981.075 626.726 980.865 629.999 984.007 C 630.807 987.649 628.473 989.011 628.235 993.111 L 626.981 995.767 C 626.018 1002.06 634.336 1009.1 638.989 1012.81 L 638.457 1015.55 C 632.488 1018.62 629.172 1013.37 627.387 1016.39 L 628.099 1017.44 C 629.669 1019.81 631.035 1021.1 630.82 1023.78 L 628.641 1026.77 L 629.626 1027.33 C 628.825 1030.97 627.819 1031.99 629.242 1034.28 C 632.847 1047.65 624.735 1041.56 625.114 1053.17 C 625.212 1056.18 630.418 1057.18 631.171 1061.44 C 629.098 1064.46 627.458 1065.49 627.886 1068.13 L 627.627 1069.74 L 626.105 1073.15 C 625.426 1077.77 624.68 1079.6 626.34 1083.73 L 628.695 1085.87 L 628.217 1088.01 C 625.804 1092.4 626.965 1092.34 630.64 1095.87 C 631.097 1102.75 624.169 1101.25 628.084 1105.41 L 627.798 1106.14 C 625.203 1111.57 624.712 1114.17 626.789 1119.84 C 627.958 1120.06 627.302 1119.97 628.762 1120.07 L 629.06 1120.83 L 627.029 1125.69 L 626.71 1128.45 C 628.386 1130.51 629.076 1131.17 631.037 1132.99 C 631.382 1139.75 626.644 1136.4 628.462 1141 L 628.256 1142.49 L 626.416 1145.08 C 627.195 1147.97 628.996 1149.34 631.108 1151.53 C 631.011 1152.01 625.914 1165.5 625.589 1166.19 L 625.849 1167.79 C 629.584 1164.12 631.264 1162.02 634.473 1157.85 C 637.953 1159.69 638.948 1160.9 642.313 1159.97 C 644.125 1157.37 645.091 1155.27 647.95 1154.1 L 649.104 1148.92 C 656.019 1147.12 654.721 1147.74 658.366 1142.86 L 661.581 1139.89 C 665.648 1137.03 665.197 1137.33 666.27 1133.45 L 665.847 1131.31 L 666.656 1130.01 C 665.708 1127.48 664.726 1125.7 665.185 1122.93 L 664.397 1121.9 C 665.229 1117.72 667.459 1109.23 665.753 1105.9 C 668.799 1100.25 667.717 1097.08 666.952 1090.17 L 666.138 1084.85 C 667.727 1082 667.299 1079.89 666.274 1076.99 L 665.986 1076.17 C 666.634 1073.52 667.136 1066.58 665.886 1064.44 C 665.484 1058.43 667.265 1053.58 667.02 1046.3 C 667.331 1045.62 666.884 1044.05 666.73 1043.05 L 666.337 1040.07 C 665.345 1034.79 665.54 1031.55 664.868 1026.71 L 667.211 1023.41 C 667.535 1018.34 663.779 1015.97 665.347 1010.95 L 664.464 1010.01 C 666.963 1006.68 665.962 1003.06 665.101 999.359 C 663.381 991.689 667.687 991.135 666.526 987.962 L 662.568 991.198 L 661.179 990.999 L 659.798 986.986 C 657.964 986.25 658.816 986.748 657.251 985.477 C 660.369 977.915 663.871 983.497 665.111 970.641 C 665.978 967.699 665.085 965.778 664.431 962.453 C 664.39 957.316 664.492 957.889 667.459 953.545 C 667.855 945.878 661.18 943.048 667.46 932.978 C 668.47 931.358 666.634 929.188 665.532 927.807 L 663.18 924.047 C 665.011 921.635 664.643 919.267 665.063 915.708 C 666.094 913.535 666.063 911.842 666.289 909.455 L 665.226 908.351 C 661.555 909.159 658.374 912.052 655.273 914.362 L 654.193 915.896 C 650.062 917.952 648.283 919.043 645.283 922.659 L 644.061 923.873 L 640.934 924.101 C 635.313 923.865 636.768 927.984 633.35 932.623 C 630.22 935.703 629.674 936.727 627.246 940.488 L 626.356 942.449 C 631.369 950.519 629.362 949.618 627.795 957.01 L 627.887 958.308 C 626.639 962.937 626.787 962.501 630.029 966.499 C 630.148 973.803 627.41 969.404 627.503 975.322 z"/>
<path transform="translate(0,0)" fill="rgb(59,130,246)" d="M 655.273 914.362 C 658.655 917.091 658.11 917.6 661.571 917.767 L 665.063 915.708 C 664.643 919.267 665.011 921.635 663.18 924.047 C 659.467 925.421 659.59 925.569 656.906 928.254 C 656.003 932.054 655.864 930.262 657.221 933.831 C 660.196 935.328 658.659 935.156 662.004 934.159 C 664.377 931.324 664.271 931.141 665.532 927.807 C 666.634 929.188 668.47 931.358 667.46 932.978 C 661.18 943.048 667.855 945.878 667.459 953.545 C 664.492 957.889 664.39 957.316 664.431 962.453 C 658.829 962.07 656.207 963.771 656.712 969.665 C 659.387 972.363 657.847 971.539 661.411 972.385 C 662.52 971.681 663.807 970.897 665.111 970.641 C 663.871 983.497 660.369 977.915 657.251 985.477 C 658.816 986.748 657.964 986.25 659.798 986.986 L 661.179 990.999 L 662.568 991.198 L 666.526 987.962 C 667.687 991.135 663.381 991.689 665.101 999.359 C 660.879 998.134 662.966 998.154 658.614 999.507 C 656.089 1002.21 656.761 1000.65 656.513 1004.33 C 657.623 1007.12 659.471 1008 661.955 1009.79 L 664.464 1010.01 L 665.347 1010.95 C 663.779 1015.97 667.535 1018.34 667.211 1023.41 C 665.489 1020.59 664.803 1018.64 661.782 1017.47 L 659.344 1017.97 C 657.138 1021.44 657.857 1019.55 657.58 1024.01 C 659.285 1026.71 659.058 1026.66 661.943 1027.93 L 664.868 1026.71 C 665.54 1031.55 665.345 1034.79 666.337 1040.07 C 662.856 1036.3 664.029 1036.33 660.143 1035.91 C 655.513 1038.6 655.483 1041.75 658.744 1045.72 C 663.063 1046.57 663.214 1046.21 666.73 1043.05 C 666.884 1044.05 667.331 1045.62 667.02 1046.3 C 663.409 1050.31 664.512 1049.84 664.973 1055.54 L 663.448 1057.71 L 662.491 1057.5 L 662.401 1054.17 C 658.801 1054.88 657.481 1057.08 654.407 1059.89 C 657.253 1062.63 658.947 1065.01 662.723 1065.62 L 665.886 1064.44 C 667.136 1066.58 666.634 1073.52 665.986 1076.17 C 663.636 1074.15 661.631 1072.02 658.232 1072.68 C 655.544 1076.93 656.884 1081.49 661.066 1084.06 C 665.523 1084.49 665.904 1080.82 666.274 1076.99 C 667.299 1079.89 667.727 1082 666.138 1084.85 C 662.414 1092.67 660.8 1089.67 656.787 1095.86 C 656.698 1099.69 657.443 1101.2 661.372 1102.66 C 664.778 1101.65 663.235 1102.51 665.829 1099.48 C 665.493 1097.1 665.171 1095.45 664.647 1093.1 C 665.535 1091.88 665.946 1091.31 666.952 1090.17 C 667.717 1097.08 668.799 1100.25 665.753 1105.9 C 664.723 1108.19 664.816 1108.13 664.588 1110.66 C 660.922 1110.89 655.361 1112.08 655.911 1116.64 C 659.054 1120.26 659.774 1121.1 664.397 1121.9 L 665.185 1122.93 C 664.726 1125.7 665.708 1127.48 666.656 1130.01 L 665.847 1131.31 C 664.109 1129.5 664.162 1129.56 661.964 1128.33 L 659.257 1129.43 C 656.724 1133.62 656.425 1132.54 657.266 1136 L 661.581 1139.89 L 658.366 1142.86 C 654.651 1139.24 656.033 1139.56 651.647 1138.61 C 648.295 1140.4 649.687 1139.13 647.84 1143.05 C 648.092 1145.92 648.214 1146.15 649.104 1148.92 C 642.67 1149.63 649.379 1147.02 639.837 1149.18 C 637.422 1153.2 640.082 1156.36 642.313 1159.97 C 638.948 1160.9 637.953 1159.69 634.473 1157.85 C 631.264 1162.02 629.584 1164.12 625.849 1167.79 L 625.589 1166.19 C 625.914 1165.5 631.011 1152.01 631.108 1151.53 C 628.996 1149.34 627.195 1147.97 626.416 1145.08 L 628.256 1142.49 C 630.391 1146.23 630.849 1147.49 634.962 1148.15 C 638.354 1146.27 636.993 1147.56 638.938 1143.9 C 638.692 1140.13 639.396 1141.69 636.867 1139 C 632.251 1138.29 633.526 1138.62 628.462 1141 C 626.644 1136.4 631.382 1139.75 631.037 1132.99 C 629.076 1131.17 628.386 1130.51 626.71 1128.45 L 627.029 1125.69 C 629.891 1127.79 630.621 1128.55 634.076 1129.67 C 638.003 1128.35 637.409 1127.86 640.603 1124.17 C 637.687 1121.06 637.681 1120.05 634.19 1118.89 C 632.5 1119.61 630.808 1120.26 629.06 1120.83 L 628.762 1120.07 C 627.302 1119.97 627.958 1120.06 626.789 1119.84 C 624.712 1114.17 625.203 1111.57 627.798 1106.14 C 630.003 1110.22 630.525 1111.22 634.903 1111.55 C 638.291 1108.96 636.983 1110.57 638.619 1106.28 C 638.087 1102.59 638.957 1103.98 636.15 1101.86 C 631.331 1102.05 632.731 1102.09 628.084 1105.41 C 624.169 1101.25 631.097 1102.75 630.64 1095.87 C 626.965 1092.34 625.804 1092.4 628.217 1088.01 C 629.684 1089.55 631.034 1090.89 632.543 1092.39 C 636.491 1092.79 634.699 1093.16 638.133 1091.33 C 639.703 1087.7 639.496 1089.53 638.817 1085.66 C 636.671 1083.08 636.368 1083.23 633.302 1082.04 C 631.494 1080.23 630.382 1077.29 626.105 1073.15 L 627.627 1069.74 C 631.004 1073.21 630.999 1074.05 635.568 1073.78 C 638.845 1071.36 637.731 1072.89 638.985 1068.97 C 637.935 1065.56 638.912 1066.88 635.957 1064.89 C 631.423 1064.85 632.462 1065.19 627.886 1068.13 C 627.458 1065.49 629.098 1064.46 631.171 1061.44 C 630.418 1057.18 625.212 1056.18 625.114 1053.17 C 624.735 1041.56 632.847 1047.65 629.242 1034.28 L 633.095 1036.99 C 636.564 1037.1 634.909 1037.44 638.147 1035.58 C 639.566 1031.24 637.667 1027.18 633.216 1025.86 L 633.419 1029.03 L 632.679 1029.76 L 629.626 1027.33 L 628.641 1026.77 L 630.82 1023.78 C 631.035 1021.1 629.669 1019.81 628.099 1017.44 L 627.387 1016.39 C 629.172 1013.37 632.488 1018.62 638.457 1015.55 L 638.989 1012.81 C 634.336 1009.1 626.018 1002.06 626.981 995.767 C 629.605 997.504 632.22 999.902 634.655 1001.98 L 640.762 994.421 L 635.622 989.087 C 631.863 988.982 632.129 989.958 628.235 993.111 C 628.473 989.011 630.807 987.649 629.999 984.007 C 626.726 980.865 626.041 981.075 627.264 977.112 C 630.976 980.96 631.102 982.173 636.412 981.208 C 639.302 978.538 638.481 980.107 639.241 976.497 C 636.217 969.381 632.219 972.555 627.503 975.322 C 627.41 969.404 630.148 973.803 630.029 966.499 C 626.787 962.501 626.639 962.937 627.887 958.308 C 631.078 962.147 631.128 963.23 636.158 962.864 C 638.933 960.451 637.948 961.93 638.884 958.074 C 637.769 954.572 638.778 955.956 635.663 953.846 C 631.069 953.895 632.33 954.033 627.795 957.01 C 629.362 949.618 631.369 950.519 626.356 942.449 L 627.246 940.488 C 631.316 944.139 631.233 945.066 636.656 944.168 C 639.522 941.708 638.626 943.238 639.198 939.291 C 638.307 935.878 636.205 934.848 633.35 932.623 C 636.768 927.984 635.313 923.865 640.934 924.101 C 638.457 929.134 638.312 927.531 639.192 932.073 C 641.7 934.78 640.21 933.931 643.823 934.706 C 647.236 933.212 646.028 934.393 647.631 931.104 C 647.006 926.606 647.152 927.953 644.061 923.873 L 645.283 922.659 C 647.715 924.85 647.968 925.322 650.998 926.705 C 654.718 925.924 653.258 926.841 655.595 923.968 C 656.234 918.702 656.463 920.817 654.193 915.896 L 655.273 914.362 z"/>
</svg>
