<svg version="1.1" xmlns="http://www.w3.org/2000/svg" style="display: block;" viewBox="0 0 2048 2048" width="1024" height="1024" preserveAspectRatio="none">
<path transform="translate(0,0)" fill="rgb(218,183,101)" d="M 612.928 845.232 C 622.864 845.915 678.804 877.639 685.27 884.548 C 685.959 887.368 687.072 890.473 686.955 898.288 C 685.678 983.974 689.429 1070.79 684.847 1156.14 C 684.703 1158.81 624.466 1192.71 618.171 1195.53 C 617.718 1195.58 614.426 1195.94 614.019 1195.8 C 602.549 1192.06 551.832 1162.73 546.07 1156.99 C 544.752 1153.95 544.166 1150.01 544.172 1146.7 C 544.328 1059.53 542.978 971.99 544.185 884.844 C 552.243 878.085 603.454 848.1 612.928 845.232 z M 564.11 1145.94 C 570.169 1149.14 601.679 1167.85 604.852 1167.59 L 605.776 1005.13 C 605.806 981.044 606.195 955.025 605.122 931.113 C 591.303 922.312 577.303 915.913 563.754 907.614 C 564.048 985.725 562.08 1068.39 564.11 1145.94 z M 627.503 975.322 L 627.264 977.112 C 626.041 981.075 626.726 980.865 629.999 984.007 C 630.807 987.649 628.473 989.011 628.235 993.111 L 626.981 995.767 C 626.018 1002.06 634.336 1009.1 638.989 1012.81 L 638.457 1015.55 C 632.488 1018.62 629.172 1013.37 627.387 1016.39 L 628.099 1017.44 C 629.669 1019.81 631.035 1021.1 630.82 1023.78 L 628.641 1026.77 L 629.626 1027.33 C 628.825 1030.97 627.819 1031.99 629.242 1034.28 C 632.847 1047.65 624.735 1041.56 625.114 1053.17 C 625.212 1056.18 630.418 1057.18 631.171 1061.44 C 629.098 1064.46 627.458 1065.49 627.886 1068.13 L 627.627 1069.74 L 626.105 1073.15 C 625.426 1077.77 624.68 1079.6 626.34 1083.73 L 628.695 1085.87 L 628.217 1088.01 C 625.804 1092.4 626.965 1092.34 630.64 1095.87 C 631.097 1102.75 624.169 1101.25 628.084 1105.41 L 627.798 1106.14 C 625.203 1111.57 624.712 1114.17 626.789 1119.84 C 627.958 1120.06 627.302 1119.97 628.762 1120.07 L 629.06 1120.83 L 627.029 1125.69 L 626.71 1128.45 C 628.386 1130.51 629.076 1131.17 631.037 1132.99 C 631.382 1139.75 626.644 1136.4 628.462 1141 L 628.256 1142.49 L 626.416 1145.08 C 627.195 1147.97 628.996 1149.34 631.108 1151.53 C 631.011 1152.01 625.914 1165.5 625.589 1166.19 L 625.849 1167.79 C 629.584 1164.12 631.264 1162.02 634.473 1157.85 C 637.953 1159.69 638.948 1160.9 642.313 1159.97 C 644.125 1157.37 645.091 1155.27 647.95 1154.1 L 649.104 1148.92 C 656.019 1147.12 654.721 1147.74 658.366 1142.86 L 661.581 1139.89 C 665.648 1137.03 665.197 1137.33 666.27 1133.45 L 665.847 1131.31 L 666.656 1130.01 C 665.708 1127.48 664.726 1125.7 665.185 1122.93 L 664.397 1121.9 C 665.229 1117.72 667.459 1109.23 665.753 1105.9 C 668.799 1100.25 667.717 1097.08 666.952 1090.17 L 666.138 1084.85 C 667.727 1082 667.299 1079.89 666.274 1076.99 L 665.986 1076.17 C 666.634 1073.52 667.136 1066.58 665.886 1064.44 C 665.484 1058.43 667.265 1053.58 667.02 1046.3 C 667.331 1045.62 666.884 1044.05 666.73 1043.05 L 666.337 1040.07 C 665.345 1034.79 665.54 1031.55 664.868 1026.71 L 667.211 1023.41 C 667.535 1018.34 663.779 1015.97 665.347 1010.95 L 664.464 1010.01 C 666.963 1006.68 665.962 1003.06 665.101 999.359 C 663.381 991.689 667.687 991.135 666.526 987.962 L 662.568 991.198 L 661.179 990.999 L 659.798 986.986 C 657.964 986.25 658.816 986.748 657.251 985.477 C 660.369 977.915 663.871 983.497 665.111 970.641 C 665.978 967.699 665.085 965.778 664.431 962.453 C 664.39 957.316 664.492 957.889 667.459 953.545 C 667.855 945.878 661.18 943.048 667.46 932.978 C 668.47 931.358 666.634 929.188 665.532 927.807 L 663.18 924.047 C 665.011 921.635 664.643 919.267 665.063 915.708 C 666.094 913.535 666.063 911.842 666.289 909.455 L 665.226 908.351 C 661.555 909.159 658.374 912.052 655.273 914.362 L 654.193 915.896 C 650.062 917.952 648.283 919.043 645.283 922.659 L 644.061 923.873 L 640.934 924.101 C 635.313 923.865 636.768 927.984 633.35 932.623 C 630.22 935.703 629.674 936.727 627.246 940.488 L 626.356 942.449 C 631.369 950.519 629.362 949.618 627.795 957.01 L 627.887 958.308 C 626.639 962.937 626.787 962.501 630.029 966.499 C 630.148 973.803 627.41 969.404 627.503 975.322 z"/>
<path transform="translate(0,0)" fill="rgb(216,194,136)" d="M 655.273 914.362 C 658.655 917.091 658.11 917.6 661.571 917.767 L 665.063 915.708 C 664.643 919.267 665.011 921.635 663.18 924.047 C 659.467 925.421 659.59 925.569 656.906 928.254 C 656.003 932.054 655.864 930.262 657.221 933.831 C 660.196 935.328 658.659 935.156 662.004 934.159 C 664.377 931.324 664.271 931.141 665.532 927.807 C 666.634 929.188 668.47 931.358 667.46 932.978 C 661.18 943.048 667.855 945.878 667.459 953.545 C 664.492 957.889 664.39 957.316 664.431 962.453 C 658.829 962.07 656.207 963.771 656.712 969.665 C 659.387 972.363 657.847 971.539 661.411 972.385 C 662.52 971.681 663.807 970.897 665.111 970.641 C 663.871 983.497 660.369 977.915 657.251 985.477 C 658.816 986.748 657.964 986.25 659.798 986.986 L 661.179 990.999 L 662.568 991.198 L 666.526 987.962 C 667.687 991.135 663.381 991.689 665.101 999.359 C 660.879 998.134 662.966 998.154 658.614 999.507 C 656.089 1002.21 656.761 1000.65 656.513 1004.33 C 657.623 1007.12 659.471 1008 661.955 1009.79 L 664.464 1010.01 L 665.347 1010.95 C 663.779 1015.97 667.535 1018.34 667.211 1023.41 C 665.489 1020.59 664.803 1018.64 661.782 1017.47 L 659.344 1017.97 C 657.138 1021.44 657.857 1019.55 657.58 1024.01 C 659.285 1026.71 659.058 1026.66 661.943 1027.93 L 664.868 1026.71 C 665.54 1031.55 665.345 1034.79 666.337 1040.07 C 662.856 1036.3 664.029 1036.33 660.143 1035.91 C 655.513 1038.6 655.483 1041.75 658.744 1045.72 C 663.063 1046.57 663.214 1046.21 666.73 1043.05 C 666.884 1044.05 667.331 1045.62 667.02 1046.3 C 663.409 1050.31 664.512 1049.84 664.973 1055.54 L 663.448 1057.71 L 662.491 1057.5 L 662.401 1054.17 C 658.801 1054.88 657.481 1057.08 654.407 1059.89 C 657.253 1062.63 658.947 1065.01 662.723 1065.62 L 665.886 1064.44 C 667.136 1066.58 666.634 1073.52 665.986 1076.17 C 663.636 1074.15 661.631 1072.02 658.232 1072.68 C 655.544 1076.93 656.884 1081.49 661.066 1084.06 C 665.523 1084.49 665.904 1080.82 666.274 1076.99 C 667.299 1079.89 667.727 1082 666.138 1084.85 C 662.414 1092.67 660.8 1089.67 656.787 1095.86 C 656.698 1099.69 657.443 1101.2 661.372 1102.66 C 664.778 1101.65 663.235 1102.51 665.829 1099.48 C 665.493 1097.1 665.171 1095.45 664.647 1093.1 C 665.535 1091.88 665.946 1091.31 666.952 1090.17 C 667.717 1097.08 668.799 1100.25 665.753 1105.9 C 664.723 1108.19 664.816 1108.13 664.588 1110.66 C 660.922 1110.89 655.361 1112.08 655.911 1116.64 C 659.054 1120.26 659.774 1121.1 664.397 1121.9 L 665.185 1122.93 C 664.726 1125.7 665.708 1127.48 666.656 1130.01 L 665.847 1131.31 C 664.109 1129.5 664.162 1129.56 661.964 1128.33 L 659.257 1129.43 C 656.724 1133.62 656.425 1132.54 657.266 1136 L 661.581 1139.89 L 658.366 1142.86 C 654.651 1139.24 656.033 1139.56 651.647 1138.61 C 648.295 1140.4 649.687 1139.13 647.84 1143.05 C 648.092 1145.92 648.214 1146.15 649.104 1148.92 C 642.67 1149.63 649.379 1147.02 639.837 1149.18 C 637.422 1153.2 640.082 1156.36 642.313 1159.97 C 638.948 1160.9 637.953 1159.69 634.473 1157.85 C 631.264 1162.02 629.584 1164.12 625.849 1167.79 L 625.589 1166.19 C 625.914 1165.5 631.011 1152.01 631.108 1151.53 C 628.996 1149.34 627.195 1147.97 626.416 1145.08 L 628.256 1142.49 C 630.391 1146.23 630.849 1147.49 634.962 1148.15 C 638.354 1146.27 636.993 1147.56 638.938 1143.9 C 638.692 1140.13 639.396 1141.69 636.867 1139 C 632.251 1138.29 633.526 1138.62 628.462 1141 C 626.644 1136.4 631.382 1139.75 631.037 1132.99 C 629.076 1131.17 628.386 1130.51 626.71 1128.45 L 627.029 1125.69 C 629.891 1127.79 630.621 1128.55 634.076 1129.67 C 638.003 1128.35 637.409 1127.86 640.603 1124.17 C 637.687 1121.06 637.681 1120.05 634.19 1118.89 C 632.5 1119.61 630.808 1120.26 629.06 1120.83 L 628.762 1120.07 C 627.302 1119.97 627.958 1120.06 626.789 1119.84 C 624.712 1114.17 625.203 1111.57 627.798 1106.14 C 630.003 1110.22 630.525 1111.22 634.903 1111.55 C 638.291 1108.96 636.983 1110.57 638.619 1106.28 C 638.087 1102.59 638.957 1103.98 636.15 1101.86 C 631.331 1102.05 632.731 1102.09 628.084 1105.41 C 624.169 1101.25 631.097 1102.75 630.64 1095.87 C 626.965 1092.34 625.804 1092.4 628.217 1088.01 C 629.684 1089.55 631.034 1090.89 632.543 1092.39 C 636.491 1092.79 634.699 1093.16 638.133 1091.33 C 639.703 1087.7 639.496 1089.53 638.817 1085.66 C 636.671 1083.08 636.368 1083.23 633.302 1082.04 C 631.494 1080.23 630.382 1077.29 626.105 1073.15 L 627.627 1069.74 C 631.004 1073.21 630.999 1074.05 635.568 1073.78 C 638.845 1071.36 637.731 1072.89 638.985 1068.97 C 637.935 1065.56 638.912 1066.88 635.957 1064.89 C 631.423 1064.85 632.462 1065.19 627.886 1068.13 C 627.458 1065.49 629.098 1064.46 631.171 1061.44 C 630.418 1057.18 625.212 1056.18 625.114 1053.17 C 624.735 1041.56 632.847 1047.65 629.242 1034.28 L 633.095 1036.99 C 636.564 1037.1 634.909 1037.44 638.147 1035.58 C 639.566 1031.24 637.667 1027.18 633.216 1025.86 L 633.419 1029.03 L 632.679 1029.76 L 629.626 1027.33 L 628.641 1026.77 L 630.82 1023.78 C 631.035 1021.1 629.669 1019.81 628.099 1017.44 L 627.387 1016.39 C 629.172 1013.37 632.488 1018.62 638.457 1015.55 L 638.989 1012.81 C 634.336 1009.1 626.018 1002.06 626.981 995.767 C 629.605 997.504 632.22 999.902 634.655 1001.98 L 640.762 994.421 L 635.622 989.087 C 631.863 988.982 632.129 989.958 628.235 993.111 C 628.473 989.011 630.807 987.649 629.999 984.007 C 626.726 980.865 626.041 981.075 627.264 977.112 C 630.976 980.96 631.102 982.173 636.412 981.208 C 639.302 978.538 638.481 980.107 639.241 976.497 C 636.217 969.381 632.219 972.555 627.503 975.322 C 627.41 969.404 630.148 973.803 630.029 966.499 C 626.787 962.501 626.639 962.937 627.887 958.308 C 631.078 962.147 631.128 963.23 636.158 962.864 C 638.933 960.451 637.948 961.93 638.884 958.074 C 637.769 954.572 638.778 955.956 635.663 953.846 C 631.069 953.895 632.33 954.033 627.795 957.01 C 629.362 949.618 631.369 950.519 626.356 942.449 L 627.246 940.488 C 631.316 944.139 631.233 945.066 636.656 944.168 C 639.522 941.708 638.626 943.238 639.198 939.291 C 638.307 935.878 636.205 934.848 633.35 932.623 C 636.768 927.984 635.313 923.865 640.934 924.101 C 638.457 929.134 638.312 927.531 639.192 932.073 C 641.7 934.78 640.21 933.931 643.823 934.706 C 647.236 933.212 646.028 934.393 647.631 931.104 C 647.006 926.606 647.152 927.953 644.061 923.873 L 645.283 922.659 C 647.715 924.85 647.968 925.322 650.998 926.705 C 654.718 925.924 653.258 926.841 655.595 923.968 C 656.234 918.702 656.463 920.817 654.193 915.896 L 655.273 914.362 z M 643.211 1121.91 C 645.986 1119.8 646.981 1119.36 648.565 1116.21 C 647.697 1112.22 647.35 1112.97 643.926 1109.49 C 640.612 1112.13 639.104 1112.37 637.957 1115.68 C 639.745 1118.46 640.96 1119.57 643.211 1121.91 z M 652.635 1038.12 C 656.352 1034.41 656.819 1035.12 657.86 1030.81 C 656.873 1028.66 654.198 1026.51 652.161 1025.68 C 647.848 1029.58 648.043 1028.22 646.842 1032.95 C 647.858 1035.33 650.043 1037.57 652.635 1038.12 z M 634.305 1057.09 C 636.905 1054.73 639.12 1053.4 639.711 1050.08 C 638.387 1047.27 637.453 1046.3 634.257 1044.71 C 630.65 1047.99 630.107 1047.43 628.907 1051.39 C 630.312 1054.52 631.555 1055.06 634.305 1057.09 z M 653.142 1057.25 C 656.496 1053.23 657.021 1053.85 657.838 1049.43 C 656.683 1047.27 654.232 1045.39 652.021 1044.62 C 648.591 1047.95 647.902 1047.47 647.185 1051.24 C 649.098 1054.27 650.391 1055.04 653.142 1057.25 z M 652.134 1100.54 C 648.762 1103.84 647.968 1103.5 647.127 1107.29 C 649.144 1110.27 650.001 1110.82 652.667 1113.1 C 656.384 1109.2 656.426 1110.28 657.58 1105.74 C 656.567 1103.17 654.664 1101.59 652.134 1100.54 z M 653.272 1075.04 C 656.637 1071.37 656.773 1072.38 657.326 1068.34 C 655.318 1065.25 654.474 1064.81 651.643 1062.59 C 649.232 1065.36 647.668 1066.47 647.515 1070.08 C 648.888 1072.98 650.452 1073.44 653.272 1075.04 z M 643.592 979.809 C 639.975 982.836 639.087 982.523 637.97 986.224 C 639.617 989.238 642.128 990.465 645.025 992.435 C 646.841 989.159 647.492 987.635 647.969 983.897 C 646.028 981.566 646.062 981.529 643.592 979.809 z M 643.735 1065.85 C 647.442 1062.02 647.464 1063.15 648.381 1058.75 C 647.106 1056.18 645.658 1054.76 642.966 1053.49 C 639.995 1056.63 639.071 1057.05 638.622 1061.07 C 639.677 1063.22 641.226 1065.27 643.735 1065.85 z M 643.674 1015.75 C 640.804 1018.58 639.182 1019.1 638.658 1022.28 C 639.882 1023.41 640.506 1023.94 641.774 1024.96 L 642.416 1028.74 C 648.597 1024.68 649.081 1020.83 643.674 1015.75 z M 649.966 1133.9 L 644.053 1127.79 C 640.375 1131.04 640.155 1130.2 639.031 1134.13 C 640.286 1137.71 639.171 1136.38 642.547 1138.23 C 646.33 1137.95 647.65 1137.08 649.966 1133.9 z M 643.161 943.674 C 639.399 946.664 639.749 945.483 638.471 949.353 C 639.41 951.79 641.412 953.817 643.929 954.739 C 647.501 950.832 647.145 952.284 648.175 947.692 C 646.865 945.509 646.03 944.179 643.161 943.674 z M 642.731 1010.62 C 648.046 1007.22 648.134 1002.09 643.613 997.833 C 640.086 1000.94 638.801 1000.94 637.872 1004.61 C 639.656 1007.48 640.471 1008.24 642.731 1010.62 z M 661.859 955.603 C 664.988 952.169 664.733 953.459 665.244 949.57 C 663.837 946.327 662.775 945.524 660.376 943 C 657.035 947.482 656.945 946.234 656.469 951.016 C 658.071 953.497 658.949 954.415 661.859 955.603 z M 652.525 946.038 C 655.678 941.899 655.968 942.868 656.252 938.56 C 655.271 936.946 653.861 934.437 652.784 932.996 C 649.59 936.498 648.255 936.742 647.533 940.615 C 649.441 943.63 649.874 943.768 652.525 946.038 z M 642.166 1092.58 C 640.383 1093.04 638.99 1094.43 638.52 1096.21 C 638.051 1097.99 638.58 1099.88 639.904 1101.16 C 641.227 1102.44 643.139 1102.91 644.902 1102.38 C 647.558 1101.58 649.087 1098.81 648.342 1096.14 C 647.596 1093.47 644.85 1091.89 642.166 1092.58 z M 644.302 1047.38 C 647.523 1043.55 648 1044.29 648.251 1040.3 C 646.236 1037.72 645.789 1037.24 643.368 1035.04 C 639.925 1038.46 638.756 1038.38 638.14 1042.18 C 640.327 1044.95 641.425 1045.46 644.302 1047.38 z M 656.943 1127.43 C 658.163 1123.97 658.115 1125.74 656.516 1121.95 C 653.366 1119.8 651.9 1119.61 648.414 1121.86 C 646.65 1127.01 648.74 1127.53 652.821 1130.76 L 656.943 1127.43 z M 643.798 1072.76 C 639.799 1076.28 639.701 1075.26 638.487 1079.55 C 639.712 1082.14 641.661 1083.44 644.336 1084.37 C 647.564 1080.83 648.307 1081.23 648.857 1077.38 C 646.789 1074.73 646.449 1074.67 643.798 1072.76 z M 652.193 982.531 L 654.07 981.595 C 655.06 977.248 654.924 976.902 654.412 972.378 L 652.816 970.847 C 649.708 973.621 647.533 974.474 647.063 977.828 C 649.116 980.023 649.837 980.648 652.193 982.531 z M 652.793 952.627 C 649.161 955.937 648.667 955.317 647.534 959.28 C 649.017 962.348 650.146 962.939 652.758 965.07 C 656.353 961.004 656.613 961.928 657.585 957.34 C 656.017 954.443 655.511 954.431 652.793 952.627 z M 643.671 961.87 C 638.894 965.666 639.642 963.937 638.338 968.908 L 639.491 971.996 C 641.444 972.818 642.038 973.498 643.577 973.247 C 646.357 967.423 653.787 969.31 643.671 961.87 z M 652.454 1081.74 C 649.04 1085.24 648.373 1084.78 647.514 1088.76 C 649.02 1091.72 649.896 1092.11 652.485 1094.1 C 656.047 1090.59 656.472 1091.26 657.605 1087.14 C 656.525 1084.24 654.992 1083.57 652.454 1081.74 z"/>
<path transform="translate(0,0)" fill="rgb(217,199,144)" d="M 643.211 1121.91 L 645.553 1123.28 C 645.709 1126.36 646.008 1124.86 644.053 1127.79 C 640.375 1131.04 640.155 1130.2 639.031 1134.13 C 640.286 1137.71 639.171 1136.38 642.547 1138.23 C 646.33 1137.95 647.65 1137.08 649.966 1133.9 L 652.821 1130.76 L 656.943 1127.43 L 659.257 1129.43 C 656.724 1133.62 656.425 1132.54 657.266 1136 L 661.581 1139.89 L 658.366 1142.86 C 654.651 1139.24 656.033 1139.56 651.647 1138.61 C 648.295 1140.4 649.687 1139.13 647.84 1143.05 C 648.092 1145.92 648.214 1146.15 649.104 1148.92 C 642.67 1149.63 649.379 1147.02 639.837 1149.18 C 637.422 1153.2 640.082 1156.36 642.313 1159.97 C 638.948 1160.9 637.953 1159.69 634.473 1157.85 C 631.264 1162.02 629.584 1164.12 625.849 1167.79 L 625.589 1166.19 C 625.914 1165.5 631.011 1152.01 631.108 1151.53 C 628.996 1149.34 627.195 1147.97 626.416 1145.08 L 628.256 1142.49 C 630.391 1146.23 630.849 1147.49 634.962 1148.15 C 638.354 1146.27 636.993 1147.56 638.938 1143.9 C 638.692 1140.13 639.396 1141.69 636.867 1139 C 632.251 1138.29 633.526 1138.62 628.462 1141 C 626.644 1136.4 631.382 1139.75 631.037 1132.99 C 629.076 1131.17 628.386 1130.51 626.71 1128.45 L 627.029 1125.69 C 629.891 1127.79 630.621 1128.55 634.076 1129.67 C 638.003 1128.35 637.409 1127.86 640.603 1124.17 C 641.086 1122.46 640.817 1123.26 643.211 1121.91 z"/>
<path transform="translate(0,0)" fill="rgb(254,249,211)" d="M 579.652 886.459 C 583.263 886.235 586.879 886.094 590.497 886.037 C 599.458 885.944 649.858 884.667 653.549 888.276 L 651.786 889.822 C 642.35 890.091 583.83 890.207 578.421 889.18 L 577.519 887.835 L 579.652 886.459 z"/>
<path transform="translate(0,0)" fill="rgb(254,249,211)" d="M 587.272 896.508 C 593.873 895.461 634.85 895.262 641.629 896.593 L 642.51 898.519 C 634.415 899.009 592.359 899.592 587.272 896.508 z"/>
<path transform="translate(0,0)" fill="rgb(254,249,211)" d="M 595.626 877.228 C 602.069 876.967 635.302 875.191 638.548 879.252 L 637.057 879.978 C 630.569 880.043 596.594 881.337 593.599 878.639 L 595.626 877.228 z"/>
<path transform="translate(0,0)" fill="rgb(216,194,136)" d="M 666.27 1133.45 C 670.195 1142.96 655.026 1152.42 647.95 1154.1 L 649.104 1148.92 C 656.019 1147.12 654.721 1147.74 658.366 1142.86 L 661.581 1139.89 C 665.648 1137.03 665.197 1137.33 666.27 1133.45 z"/>
<path transform="translate(0,0)" fill="rgb(254,249,211)" d="M 602.963 904.48 C 608.508 904.129 623.011 902.712 627.689 905.075 L 627.757 907.477 C 620.484 907.89 610.499 908.942 603.733 906.527 L 602.963 904.48 z"/>
<path transform="translate(0,0)" fill="rgb(216,194,136)" fill-opacity="0.87451" d="M 628.695 1085.87 L 626.34 1083.73 C 624.68 1079.6 625.426 1077.77 626.105 1073.15 C 630.382 1077.29 631.494 1080.23 633.302 1082.04 C 631.464 1083.78 630.87 1084.57 628.695 1085.87 z"/>
<path transform="translate(0,0)" fill="rgb(254,249,211)" d="M 608.098 868.435 C 613.717 867.607 620.197 866.532 624.333 870.943 C 618.605 871.139 615.062 871.514 609.383 870.442 L 608.098 868.435 z"/>
<path transform="translate(0,0)" fill="rgb(218,183,101)" d="M 457.764 934.997 C 466.258 936.797 522.422 968.37 529.29 974.482 C 533.731 984.732 531.055 1051.29 531.185 1068.13 C 531.391 1094.79 532.905 1130.66 530.857 1156.75 C 522.444 1162.82 471.395 1191.51 462.402 1195.43 C 456.565 1196.49 451.319 1194.18 446.31 1191.32 C 426.606 1180.08 406.281 1168.68 387.156 1156.54 C 385.375 1142.3 385.626 982.248 388.53 976.031 C 391.92 968.773 447.902 938.964 457.764 934.997 z M 406.892 1145.5 C 411.564 1148.19 445.648 1168.35 449.15 1168.27 C 449.494 1121.41 451.019 1066.98 449.078 1020.5 C 437.388 1014.22 417.16 1004.51 407.175 997.455 C 407.075 1046.21 406.228 1096.9 406.892 1145.5 z"/>
<path transform="translate(0,0)" fill="rgb(216,194,136)" d="M 494.809 1005.15 L 497.53 1003.95 C 501.412 1006.05 501.692 1006.94 505.686 1005.67 C 506.725 1002.69 506.779 1001.87 507.258 998.808 L 508.681 997.551 L 509.913 998.244 C 510.82 1002.16 511.176 1007.64 509.482 1011.3 C 510.167 1012.44 510.355 1013.81 510.002 1015.09 C 511.609 1022.22 512.061 1024.44 509.479 1031.25 C 509.571 1031.84 509.553 1032.43 509.425 1033.01 C 512.635 1040.54 512.301 1043.03 509.634 1051.12 C 509.62 1051.29 509.597 1051.46 509.566 1051.62 C 512.516 1055.71 512.64 1067.91 509.512 1070.79 L 507.665 1072.73 C 509.181 1073.55 510.731 1073.75 510.938 1075.43 C 512.222 1085.87 513.104 1094.69 509.926 1104.78 L 510.216 1105.67 C 513.723 1111.82 512.609 1115.84 509.741 1122.05 L 510.197 1123.04 C 513.428 1134.89 511.286 1131.87 510.606 1141.68 C 508.471 1145.44 508.591 1145.34 505.386 1148.2 C 503.711 1149.01 502.773 1149.45 501.174 1150.42 C 498.546 1151.89 495.871 1153.46 493.184 1154.81 C 488.589 1158.35 487.593 1158.74 482.107 1160.7 C 480.174 1162.95 475.455 1166.01 472.42 1166.23 C 466.91 1162.74 469.336 1157.37 471.636 1152.3 L 472.401 1150.79 C 471.876 1150.11 470.734 1148.93 470.113 1148.26 C 469.121 1142.73 469.06 1137.81 471.997 1132.87 C 472.044 1132.55 472.121 1132.23 472.228 1131.92 C 468.691 1126.85 468.532 1100.72 472.17 1095.92 C 472.214 1095.65 472.279 1095.39 472.364 1095.13 C 471.49 1094.25 469.566 1092.32 469.486 1091.19 C 469.035 1084.86 468.869 1065.75 470.81 1060.63 L 470.757 1059.88 C 469.024 1053.17 468.869 1047.87 470.838 1041.26 L 471.518 1040.31 C 467.855 1028.3 473.075 1028.09 472.225 1021.12 C 472.86 1019.53 474.266 1018.38 475.949 1018.07 L 480.144 1015.47 L 488.865 1010.3 C 490.397 1009.38 493.343 1006.49 494.809 1005.15 z"/>
<path transform="translate(0,0)" fill="rgb(0,0,0)" d="M 470.757 1059.88 C 474.326 1056.15 473.358 1056.05 477.626 1054.82 C 480.998 1056.05 479.741 1054.99 481.527 1058.1 C 481.456 1062.48 482.107 1060.63 480.071 1064.03 C 476.645 1065.44 478.364 1065.29 474.728 1064.45 L 470.81 1060.63 L 470.757 1059.88 z"/>
<path transform="translate(0,0)" fill="rgb(0,0,0)" d="M 471.518 1040.31 C 474.824 1036.98 473.727 1037.14 477.675 1036.07 C 481.185 1037.41 479.811 1036.3 481.785 1039.71 C 481.76 1044.19 482.477 1042.36 480.221 1045.62 C 475.04 1046.92 474.339 1045 470.838 1041.26 L 471.518 1040.31 z"/>
<path transform="translate(0,0)" fill="rgb(0,0,0)" d="M 472.364 1095.13 C 473.241 1092.45 476.072 1090.95 478.776 1091.72 C 481.48 1092.49 483.092 1095.26 482.428 1098 C 481.763 1100.73 479.059 1102.45 476.303 1101.89 C 473.547 1101.34 471.722 1098.7 472.17 1095.92 C 472.214 1095.65 472.279 1095.39 472.364 1095.13 z"/>
<path transform="translate(0,0)" fill="rgb(0,0,0)" d="M 472.228 1131.92 C 473.131 1129.31 475.924 1127.87 478.573 1128.64 C 481.223 1129.42 482.794 1132.14 482.143 1134.83 C 481.492 1137.51 478.848 1139.21 476.137 1138.69 C 473.426 1138.16 471.603 1135.6 471.997 1132.87 C 472.044 1132.55 472.121 1132.23 472.228 1131.92 z"/>
<path transform="translate(0,0)" fill="rgb(0,0,0)" d="M 472.401 1150.79 C 476.244 1147.58 475.128 1147.48 479.183 1147.21 C 482.095 1149.21 482.123 1149.36 484.342 1151.89 C 481.158 1154.65 479.912 1156.61 476.183 1157.42 C 473.357 1155.79 473.307 1155.11 471.636 1152.3 L 472.401 1150.79 z"/>
<path transform="translate(0,0)" fill="rgb(0,0,0)" d="M 510.197 1123.04 C 509.189 1126.99 507.743 1129.57 503.681 1129.61 C 501.137 1127.64 501.296 1126.92 500.362 1123.81 C 500.994 1120.08 500.101 1121.44 502.578 1119.27 C 507.166 1119.41 505.501 1119.11 509.741 1122.05 L 510.197 1123.04 z"/>
<path transform="translate(0,0)" fill="rgb(0,0,0)" d="M 475.949 1018.07 C 478.186 1017.66 480.419 1018.81 481.377 1020.87 C 482.335 1022.94 481.775 1025.39 480.015 1026.83 C 478.256 1028.27 475.743 1028.34 473.908 1027 C 472.073 1025.65 471.38 1023.24 472.225 1021.12 C 472.86 1019.53 474.266 1018.38 475.949 1018.07 z"/>
<path transform="translate(0,0)" fill="rgb(0,0,0)" d="M 507.665 1072.73 C 506.602 1073.24 505.152 1073.71 504.014 1074.13 C 501.159 1072.46 501.217 1072.69 499.767 1069.76 C 500.418 1066.18 499.634 1067.75 502.568 1065.1 C 506.641 1064.12 504.814 1063.87 508.28 1065.21 C 510.315 1068.46 509.808 1066.69 509.512 1070.79 L 507.665 1072.73 z"/>
<path transform="translate(0,0)" fill="rgb(0,0,0)" d="M 510.002 1015.09 C 509.39 1017.31 507.303 1018.79 505.006 1018.64 C 502.71 1018.49 500.837 1016.74 500.524 1014.46 C 500.211 1012.18 501.545 1009.99 503.715 1009.23 C 505.886 1008.46 508.296 1009.33 509.482 1011.3 C 510.167 1012.44 510.355 1013.81 510.002 1015.09 z"/>
<path transform="translate(0,0)" fill="rgb(0,0,0)" d="M 510.216 1105.67 C 507.925 1109.28 507.626 1110.81 503.189 1110.66 C 499.791 1107.28 499.715 1104.08 503.501 1101.08 C 507.529 1101.35 506.211 1101.21 509.926 1104.78 L 510.216 1105.67 z"/>
<path transform="translate(0,0)" fill="rgb(0,0,0)" d="M 505.386 1148.2 C 501.269 1144.89 501.13 1145.51 500.305 1141.43 C 502.009 1137.87 500.695 1139.13 504.51 1137.64 C 508.56 1138.53 507.242 1138.17 510.606 1141.68 C 508.471 1145.44 508.591 1145.34 505.386 1148.2 z"/>
<path transform="translate(0,0)" fill="rgb(0,0,0)" d="M 509.425 1033.01 C 508.898 1035.4 506.637 1037 504.208 1036.7 C 501.778 1036.39 499.978 1034.29 500.052 1031.85 C 500.126 1029.4 502.051 1027.41 504.494 1027.26 C 506.937 1027.1 509.097 1028.83 509.479 1031.25 C 509.571 1031.84 509.553 1032.43 509.425 1033.01 z"/>
<path transform="translate(0,0)" fill="rgb(0,0,0)" d="M 509.566 1051.62 C 509.088 1054.14 506.691 1055.81 504.163 1055.4 C 501.634 1054.99 499.894 1052.64 500.238 1050.1 C 500.582 1047.56 502.885 1045.76 505.432 1046.04 C 507.979 1046.31 509.842 1048.57 509.634 1051.12 C 509.62 1051.29 509.597 1051.46 509.566 1051.62 z"/>
<path transform="translate(0,0)" fill="rgb(0,0,0)" d="M 488.865 1010.3 L 491.933 1013.85 C 488.276 1017.56 488.649 1018.53 484.644 1019.05 C 482.718 1017.63 481.913 1017.07 480.144 1015.47 L 488.865 1010.3 z"/>
<path transform="translate(0,0)" fill="rgb(0,0,0)" d="M 493.184 1154.81 C 490.636 1151.86 491.206 1153.48 490.938 1149.97 C 492.752 1147.03 491.521 1148.14 494.977 1146.78 C 498.933 1147.38 497.687 1147.18 501.174 1150.42 C 498.546 1151.89 495.871 1153.46 493.184 1154.81 z"/>
<path transform="translate(0,0)" fill="rgb(0,0,0)" d="M 489.2 1114.68 C 493.248 1111.42 492.201 1111.27 496.614 1110.65 C 500.271 1112.2 499.033 1110.95 500.651 1114.33 C 499.742 1118.12 499.154 1118.79 495.274 1121.22 L 491.59 1125.09 C 491.261 1127.79 488.905 1129.79 486.187 1129.66 C 483.469 1129.53 481.308 1127.33 481.231 1124.61 C 481.154 1121.89 483.187 1119.57 485.894 1119.29 C 487.193 1117.76 488.078 1116.34 489.2 1114.68 z"/>
<path transform="translate(0,0)" fill="rgb(0,0,0)" d="M 485.894 1119.29 C 487.468 1119.13 489.03 1119.69 490.139 1120.82 C 491.247 1121.95 491.781 1123.52 491.59 1125.09 C 491.261 1127.79 488.905 1129.79 486.187 1129.66 C 483.469 1129.53 481.308 1127.33 481.231 1124.61 C 481.154 1121.89 483.187 1119.57 485.894 1119.29 z"/>
<path transform="translate(0,0)" fill="rgb(0,0,0)" d="M 485.894 1119.29 C 487.193 1117.76 488.078 1116.34 489.2 1114.68 L 495.274 1121.22 L 491.59 1125.09 C 491.781 1123.52 491.247 1121.95 490.139 1120.82 C 489.03 1119.69 487.468 1119.13 485.894 1119.29 z"/>
<path transform="translate(0,0)" fill="rgb(0,0,0)" d="M 490.66 1059.01 C 491.071 1056.4 493.418 1054.54 496.055 1054.74 C 498.692 1054.94 500.737 1057.12 500.756 1059.77 C 500.775 1062.41 498.762 1064.63 496.129 1064.86 C 492.906 1066.92 493.967 1065.5 492.994 1069.36 C 489.551 1073.04 489.403 1073.41 484.656 1073.47 C 481.523 1071.7 482.604 1072.95 481.313 1069.59 C 482.303 1065.24 482.008 1066.59 485.728 1062.95 C 488.772 1061.74 488.555 1061.62 490.66 1059.01 z"/>
<path transform="translate(0,0)" fill="rgb(0,0,0)" d="M 490.66 1059.01 C 491.071 1056.4 493.418 1054.54 496.055 1054.74 C 498.692 1054.94 500.737 1057.12 500.756 1059.77 C 500.775 1062.41 498.762 1064.63 496.129 1064.86 C 494.57 1065 493.035 1064.42 491.966 1063.27 C 490.898 1062.13 490.416 1060.56 490.66 1059.01 z"/>
<path transform="translate(0,0)" fill="rgb(0,0,0)" d="M 485.728 1062.95 C 488.772 1061.74 488.555 1061.62 490.66 1059.01 C 490.416 1060.56 490.898 1062.13 491.966 1063.27 C 493.035 1064.42 494.57 1065 496.129 1064.86 C 492.906 1066.92 493.967 1065.5 492.994 1069.36 C 489.979 1065.92 489.52 1065.6 485.728 1062.95 z"/>
<path transform="translate(0,0)" fill="rgb(0,0,0)" d="M 485.884 1037.27 L 489.717 1040.39 C 491.925 1043.22 493.093 1044.78 495.662 1047.25 L 493.151 1050.53 C 491.392 1052.2 490.115 1053.22 488.239 1054.73 C 483.889 1055.26 482.858 1054.99 481.351 1051.17 C 482.353 1046.78 482.485 1047.84 486.486 1044.1 L 486.517 1043.53 C 485.542 1041.99 485.223 1041.41 484.404 1039.84 L 485.884 1037.27 z"/>
<path transform="translate(0,0)" fill="rgb(0,0,0)" d="M 485.884 1037.27 L 489.717 1040.39 C 491.925 1043.22 493.093 1044.78 495.662 1047.25 L 493.151 1050.53 L 486.486 1044.1 L 486.517 1043.53 C 485.542 1041.99 485.223 1041.41 484.404 1039.84 L 485.884 1037.27 z"/>
<path transform="translate(0,0)" fill="rgb(0,0,0)" d="M 489.267 1096.27 C 492.643 1092.6 491.489 1092.82 495.651 1091.47 C 499.517 1092.58 498.135 1091.47 500.159 1094.61 C 500.192 1099.65 499.351 1099.68 495.554 1102.92 L 491.513 1105.18 C 491.242 1102.42 488.828 1100.37 486.062 1100.56 L 489.267 1096.27 z"/>
<path transform="translate(0,0)" fill="rgb(0,0,0)" d="M 486.062 1100.56 L 489.267 1096.27 L 495.554 1102.92 L 491.513 1105.18 C 491.242 1102.42 488.828 1100.37 486.062 1100.56 z"/>
<path transform="translate(0,0)" fill="rgb(0,0,0)" d="M 475.592 1110.44 C 477.405 1109.77 479.436 1110.16 480.88 1111.44 C 482.323 1112.72 482.944 1114.7 482.496 1116.57 C 482.047 1118.45 480.603 1119.93 478.736 1120.43 C 476.029 1121.14 473.238 1119.6 472.397 1116.93 C 471.556 1114.26 472.963 1111.4 475.592 1110.44 z"/>
<path transform="translate(0,0)" fill="rgb(0,0,0)" d="M 485.199 1081.42 C 488.191 1081.98 489.737 1083.48 491.201 1085.93 C 490.423 1090.5 490.593 1089.14 487.049 1093.17 C 484.021 1092.15 482.294 1090.59 480.929 1087.95 C 481.779 1083.86 481.75 1084.95 485.199 1081.42 z"/>
<path transform="translate(0,0)" fill="rgb(0,0,0)" d="M 485.978 1137.66 C 488.784 1137.25 491.388 1139.19 491.799 1142 C 492.21 1144.81 490.272 1147.41 487.467 1147.83 C 484.655 1148.25 482.038 1146.3 481.626 1143.49 C 481.215 1140.68 483.164 1138.06 485.978 1137.66 z"/>
<path transform="translate(0,0)" fill="rgb(0,0,0)" d="M 485.884 1037.27 C 483.048 1037.05 480.924 1034.58 481.143 1031.74 C 481.361 1028.91 483.838 1026.79 486.674 1027.01 C 489.505 1027.23 491.621 1029.7 491.403 1032.53 C 491.185 1035.37 488.715 1037.48 485.884 1037.27 z"/>
<path transform="translate(0,0)" fill="rgb(0,0,0)" d="M 486.062 1100.56 C 488.828 1100.37 491.242 1102.42 491.513 1105.18 C 491.718 1107.26 490.64 1109.25 488.789 1110.22 C 486.938 1111.2 484.683 1110.95 483.089 1109.6 C 481.494 1108.24 480.878 1106.06 481.531 1104.08 C 482.184 1102.09 483.976 1100.7 486.062 1100.56 z"/>
<path transform="translate(0,0)" fill="rgb(0,0,0)" d="M 495.591 1127.63 C 498.31 1128.87 499.853 1130.34 500.817 1133.12 C 499.683 1137.5 499.535 1136.56 495.985 1140.34 C 493.487 1138.13 492.394 1137.46 490.875 1134.43 C 491.709 1130.7 492.504 1130.93 495.591 1127.63 z"/>
<path transform="translate(0,0)" fill="rgb(0,0,0)" d="M 476.515 1072.49 C 479.624 1074.22 480.19 1074.23 482.322 1077.13 C 481.682 1081.2 481.237 1080.46 477.785 1084.13 C 474.827 1083.41 473.55 1081.92 472.356 1079.33 C 473.436 1074.77 472.957 1076.29 476.515 1072.49 z"/>
<path transform="translate(0,0)" fill="rgb(0,0,0)" d="M 489.717 1040.39 C 493.679 1036.93 492.665 1036.71 496.963 1036.19 C 500.186 1037.77 499.096 1036.57 500.372 1039.89 C 499.684 1043.8 499.148 1044.06 495.662 1047.25 C 493.093 1044.78 491.925 1043.22 489.717 1040.39 z"/>
<path transform="translate(0,0)" fill="rgb(0,0,0)" d="M 495.219 1071.91 C 497.855 1073.7 499.242 1074.27 500.622 1077.14 C 500.072 1080.85 499.868 1080 496.803 1083.35 C 493.812 1082.72 492.401 1081.9 490.778 1079.36 C 491.506 1074.81 491.564 1075.99 495.219 1071.91 z"/>
<path transform="translate(0,0)" fill="rgb(0,0,0)" d="M 495.398 1017.82 C 497.98 1017.75 500.183 1019.68 500.454 1022.24 C 500.726 1024.81 498.975 1027.16 496.435 1027.63 C 494.608 1027.96 492.745 1027.25 491.614 1025.77 C 490.482 1024.3 490.273 1022.32 491.071 1020.64 C 491.869 1018.96 493.541 1017.87 495.398 1017.82 z"/>
<path transform="translate(0,0)" fill="rgb(0,0,0)" d="M 504.47 1080.71 C 507.029 1082.66 508.788 1083.5 509.721 1086.53 C 509.362 1089.95 507.852 1090.89 505.411 1093.39 C 502.726 1091.29 501.905 1090.95 500.464 1087.8 C 500.59 1084.52 502.269 1083.25 504.47 1080.71 z"/>
<path transform="translate(0,0)" fill="rgb(254,249,211)" d="M 463.653 976.474 C 472.06 976.256 490.783 975.859 497.994 978.8 C 495.87 980.713 463.52 980.121 458.25 980.124 C 448.45 980.203 427.958 981.472 419.96 978.292 C 422.029 976.367 457.883 976.548 463.653 976.474 z"/>
<path transform="translate(0,0)" fill="rgb(254,249,211)" d="M 430.218 986.429 C 437.93 985.549 482.378 984.97 487.07 987.113 L 487.381 988.894 C 475.287 989.557 442.279 990.798 431.34 988.47 L 430.218 986.429 z"/>
<path transform="translate(0,0)" fill="rgb(254,249,211)" d="M 435.965 968.455 C 442.897 967.698 476.228 966.801 481.3 969.243 L 481.516 970.952 C 474.144 971.083 441.258 972.2 435.739 970.348 L 435.965 968.455 z"/>
<path transform="translate(0,0)" fill="rgb(254,249,211)" d="M 444.104 995.345 C 449.405 994.64 457.585 994.625 463.071 994.674 C 468.127 994.72 469.085 994.594 471.845 997.463 C 463.074 998.389 451.652 999.931 444.104 995.345 z"/>
<path transform="translate(0,0)" fill="rgb(254,249,211)" d="M 453.229 958.327 C 454.072 958.265 454.916 958.215 455.761 958.178 C 458.993 958.041 463.94 957.966 466.412 960.246 L 465.667 961.755 C 461.44 961.827 454.949 962.527 451.735 960.383 L 453.229 958.327 z"/>
<path transform="translate(0,0)" fill="rgb(247, 242, 240)" d="M 1567.42 931.944 C 1617.25 924.141 1663.92 958.382 1671.42 1008.26 C 1678.92 1058.13 1644.41 1104.59 1594.49 1111.79 C 1544.99 1118.94 1499.01 1084.77 1491.57 1035.32 C 1484.13 985.864 1518.02 939.682 1567.42 931.944 z M 1588.39 1075.97 C 1618.65 1071.92 1639.84 1044.01 1635.6 1013.77 C 1631.37 983.53 1603.33 962.515 1573.12 966.936 C 1543.17 971.318 1522.37 999.061 1526.57 1029.04 C 1530.77 1059.02 1558.38 1079.98 1588.39 1075.97 z"/>
<path transform="translate(0,0)" fill="rgb(218,183,101)" d="M 1204.53 934.147 C 1246.76 933.81 1285.24 928.596 1316.41 963.209 C 1344.74 994.676 1345.9 1057.62 1313.12 1085.71 C 1312.65 1086.2 1312.16 1086.69 1311.66 1087.18 C 1280.86 1117.11 1243.9 1112.27 1204.39 1112.03 C 1203.4 1067.9 1204.64 1023.39 1204.14 979.229 C 1203.97 964.305 1204.04 949.042 1204.53 934.147 z M 1240.42 1077.14 C 1257.74 1077.05 1272.79 1075.21 1285.69 1062.06 C 1291.68 1055.89 1295.23 1051.12 1298.24 1042.81 C 1305.65 1022.34 1300.86 997.689 1284.94 982.466 C 1272.12 970.206 1256.97 970.081 1240.43 969.758 C 1241.09 979.416 1240.96 990.861 1240.62 1000.56 C 1239.76 1025.83 1241.28 1051.98 1240.42 1077.14 z"/>
<path transform="translate(0,0)" fill="rgb(247, 242, 240)" d="M 1355.97 932.821 C 1402.18 932.149 1451.72 925.132 1442.61 990.63 C 1481.86 1008.05 1494.4 1058.36 1463.76 1090.97 C 1441.37 1111.91 1424.31 1111.32 1395.72 1111.09 L 1355.58 1110.99 L 1355.97 932.821 z M 1390.41 1074.9 C 1406.98 1075.21 1421.02 1077.6 1434.89 1068.49 C 1446.25 1057.79 1445.32 1051.9 1443.23 1037.35 C 1438 1030.73 1436.43 1028.92 1429.02 1024.24 C 1415.17 1023.12 1403.55 1023.65 1390.01 1023.23 C 1391.32 1035.91 1390.43 1060.94 1390.41 1074.9 z M 1390.92 989.582 C 1396.91 989.37 1402.77 989.828 1407.91 986.838 C 1417.27 969.722 1403.74 967.895 1390.36 966.927 L 1390.92 989.582 z"/>
<path transform="translate(0,0)" fill="rgb(218,183,101)" d="M 298.937 1034.16 C 313.669 1033.61 358.382 1064.34 371.874 1072.81 C 377.996 1076.66 376.102 1144.17 374.658 1154.78 C 368.199 1160.89 317.296 1190.66 307.697 1195.09 C 294.782 1197.37 245.567 1165.15 234.262 1157.54 C 228.327 1153.55 230.813 1085.95 231.156 1074.79 C 238.045 1068.6 289.206 1038.84 298.937 1034.16 z M 252.574 1145.9 C 265.793 1153.47 279.926 1161.31 292.815 1169.32 C 292.658 1152.45 292.632 1135.58 292.735 1118.71 C 278.089 1111.65 266.372 1105.32 252.148 1097.48 C 252.104 1113.5 251.861 1129.93 252.574 1145.9 z"/>
<path transform="translate(0,0)" fill="rgb(217,199,144)" d="M 341.982 1103.08 C 344.062 1105.47 345.201 1107.42 348.184 1108.15 C 351.401 1109.62 352.119 1110.94 354.359 1113.64 L 354.02 1114.65 C 355.549 1120.77 355.609 1138.86 354.304 1145.11 L 352.429 1146.39 L 349.056 1145.7 C 345.356 1149.15 350.842 1150.4 342.899 1151.74 L 338.851 1149.74 C 336.473 1150.55 336.56 1150.47 334.591 1152.01 C 334.459 1153.35 333.796 1154.57 332.75 1155.42 C 331.704 1156.26 330.363 1156.65 329.029 1156.49 L 326.578 1159.23 C 324.024 1161.6 318.991 1164.92 315.989 1167.03 L 315.049 1166.62 C 316.446 1160.8 316.662 1163.04 314.772 1157.94 C 312.119 1153.35 314.114 1144.76 315.829 1140.07 L 315.968 1139.39 C 311.165 1133.56 313.04 1129.96 314.172 1122.87 C 315.854 1119.14 315.268 1120.33 319.034 1117.66 C 321.237 1117.4 321.026 1116.86 323.36 1114.97 C 326.047 1113.14 328.991 1111.36 331.76 1109.62 C 336.027 1106.23 337.086 1105.38 341.982 1103.08 z"/>
<path transform="translate(0,0)" fill="rgb(216,194,136)" d="M 341.982 1103.08 C 344.062 1105.47 345.201 1107.42 348.184 1108.15 C 346.232 1110.22 343.709 1112.76 341.894 1114.86 L 340.767 1117.71 L 337.853 1118.91 C 335.587 1119.07 333.704 1120.72 333.232 1122.94 C 331.763 1124.35 330.229 1126.11 328.514 1127.01 C 327.179 1128.56 324.481 1131.53 323.37 1133.06 L 320.81 1136.01 C 318.522 1137.43 317.943 1137.64 315.968 1139.39 C 311.165 1133.56 313.04 1129.96 314.172 1122.87 C 315.854 1119.14 315.268 1120.33 319.034 1117.66 C 321.237 1117.4 321.026 1116.86 323.36 1114.97 C 326.047 1113.14 328.991 1111.36 331.76 1109.62 C 336.027 1106.23 337.086 1105.38 341.982 1103.08 z"/>
<path transform="translate(0,0)" fill="rgb(0,0,0)" d="M 319.034 1117.66 C 323.295 1120.73 323.093 1119.64 324.933 1123.79 C 324.156 1127.67 325.05 1126.11 322.419 1128.77 C 318.7 1129.52 320.469 1129.67 316.925 1128.25 C 315.299 1125.77 315.182 1125.64 314.172 1122.87 C 315.854 1119.14 315.268 1120.33 319.034 1117.66 z"/>
<path transform="translate(0,0)" fill="rgb(0,0,0)" d="M 331.76 1109.62 C 334.767 1113.62 334.37 1111.91 334.263 1116.29 C 332.049 1119.3 333.481 1118.25 329.632 1119.28 C 325.738 1118.23 326.672 1118.21 323.36 1114.97 C 326.047 1113.14 328.991 1111.36 331.76 1109.62 z"/>
<path transform="translate(0,0)" fill="rgb(0,0,0)" d="M 314.772 1157.94 C 318.453 1155.28 317.805 1154.79 321.37 1154.9 C 323.182 1156.37 324.819 1157.69 326.578 1159.23 C 324.024 1161.6 318.991 1164.92 315.989 1167.03 L 315.049 1166.62 C 316.446 1160.8 316.662 1163.04 314.772 1157.94 z"/>
<path transform="translate(0,0)" fill="rgb(0,0,0)" d="M 348.184 1108.15 C 351.401 1109.62 352.119 1110.94 354.359 1113.64 L 354.02 1114.65 C 351.47 1117.18 351.375 1117.48 348.125 1119.26 C 344.424 1118.48 345.115 1118.12 341.894 1114.86 C 343.709 1112.76 346.232 1110.22 348.184 1108.15 z"/>
<path transform="translate(0,0)" fill="rgb(0,0,0)" d="M 337.853 1118.91 C 340.043 1118.75 342.089 1120.01 342.933 1122.04 C 343.778 1124.06 343.231 1126.4 341.576 1127.85 C 339.921 1129.29 337.529 1129.51 335.636 1128.4 C 333.744 1127.28 332.775 1125.09 333.232 1122.94 C 333.704 1120.72 335.587 1119.07 337.853 1118.91 z"/>
<path transform="translate(0,0)" fill="rgb(0,0,0)" d="M 329.029 1156.49 C 326.293 1156.18 324.327 1153.71 324.628 1150.97 C 324.93 1148.23 327.386 1146.25 330.126 1146.54 C 332.865 1146.82 334.86 1149.27 334.591 1152.01 C 334.459 1153.35 333.796 1154.57 332.75 1155.42 C 331.704 1156.26 330.363 1156.65 329.029 1156.49 z"/>
<path transform="translate(0,0)" fill="rgb(0,0,0)" d="M 320.81 1136.01 L 327.06 1142.21 C 324.058 1145.68 322.996 1147.94 318.246 1146.61 C 316.152 1143.55 316.302 1143.77 315.829 1140.07 L 315.968 1139.39 C 317.943 1137.64 318.522 1137.43 320.81 1136.01 z"/>
<path transform="translate(0,0)" fill="rgb(0,0,0)" d="M 328.514 1127.01 C 331.143 1128.69 333.186 1129.5 334.286 1132.32 C 333.943 1135.46 332.303 1136.58 330.072 1138.9 C 328.43 1137.71 325.039 1134.54 323.37 1133.06 C 324.481 1131.53 327.179 1128.56 328.514 1127.01 z"/>
<path transform="translate(0,0)" fill="rgb(0,0,0)" d="M 338.38 1137.01 C 341.171 1136.74 343.656 1138.77 343.945 1141.56 C 344.233 1144.35 342.217 1146.85 339.43 1147.16 C 336.614 1147.47 334.083 1145.43 333.792 1142.61 C 333.501 1139.8 335.56 1137.28 338.38 1137.01 z"/>
<path transform="translate(0,0)" fill="rgb(0,0,0)" d="M 346.531 1127.41 C 349.022 1128.89 350.558 1129.86 352.914 1131.53 C 352.844 1134.75 352.166 1134.29 349.134 1137.41 C 347.438 1138.53 348.344 1138.07 345.649 1137.85 L 343.833 1135.02 C 343.617 1129.99 343.152 1131.98 346.531 1127.41 z"/>
<path transform="translate(0,0)" fill="rgb(254,249,211)" d="M 268.113 1076.53 C 277.361 1075.82 334.485 1074.68 341.613 1077.66 L 341.859 1079.26 L 340.051 1079.89 C 329.146 1079.99 273.317 1080.76 265.867 1079.09 L 265.384 1077.69 L 268.113 1076.53 z"/>
<path transform="translate(0,0)" fill="rgb(254,249,211)" d="M 275.088 1086.5 C 282.034 1085.54 326.908 1084.36 330.484 1087.83 C 323.19 1089.46 280.015 1090.48 275.088 1086.5 z"/>
<path transform="translate(0,0)" fill="rgb(254,249,211)" d="M 291.013 1067.45 C 297.726 1067.15 319.269 1066.25 324.378 1068.79 L 323.79 1069.95 L 318.25 1070.13 C 311.995 1070.23 286.807 1071.03 282.662 1069.12 C 285.712 1067.32 287.186 1067.74 291.013 1067.45 z"/>
<path transform="translate(0,0)" fill="rgb(217,199,144)" d="M 350.523 1098.33 L 352.988 1098.11 C 355.223 1101.19 354.818 1105.11 355.028 1109.27 C 355.027 1112.06 355.289 1111.14 354.359 1113.64 C 352.119 1110.94 351.401 1109.62 348.184 1108.15 C 345.201 1107.42 344.062 1105.47 341.982 1103.08 L 350.523 1098.33 z"/>
<path transform="translate(0,0)" fill="rgb(0,0,0)" d="M 350.523 1098.33 L 352.988 1098.11 C 355.223 1101.19 354.818 1105.11 355.028 1109.27 L 352.843 1108.59 C 350.492 1105.92 350.778 1102.06 350.523 1098.33 z"/>
<path transform="translate(0,0)" fill="rgb(254,249,211)" d="M 290.688 1094.51 C 296.265 1094.19 310.597 1092.85 315.303 1095.12 L 315.605 1097.15 C 309.559 1098.33 297.529 1098.74 291.688 1096.7 L 290.688 1094.51 z"/>
<path transform="translate(0,0)" fill="rgb(254,249,211)" d="M 295.442 1058.44 C 301.138 1057.72 306.009 1056.59 310.344 1060.73 C 306.18 1061.05 299.62 1061.68 295.876 1060.36 L 295.442 1058.44 z"/>
<path transform="translate(0,0)" fill="rgb(218,183,101)" d="M 1010.52 933.509 L 1017.14 933.545 L 1017.12 969.28 C 993.107 969.11 969.094 969.117 945.082 969.299 L 944.854 1005.72 C 959.485 1004.92 984.075 1005.08 998.905 1005.83 C 999.076 1017.77 998.954 1030.01 998.971 1041.98 C 980.985 1041.97 962.999 1041.76 945.018 1041.33 C 945.397 1052.58 945.051 1065.66 944.991 1077.03 C 955.053 1076.93 1010.55 1075.7 1016.59 1077.96 L 1017.12 1080.75 L 1016.96 1112.92 L 908.692 1112.99 C 909.235 1053.35 908.032 993.246 908.922 933.78 C 940.116 934.529 979.366 934.331 1010.52 933.509 z"/>
<path transform="translate(0,0)" fill="rgb(218,183,101)" d="M 1109.25 933.418 C 1113.54 936.351 1179.21 1089.95 1192.43 1112.92 C 1179.7 1112.35 1164.79 1112.77 1151.85 1112.87 C 1147.02 1104.07 1143.57 1094.8 1140.09 1085.42 C 1131.12 1085.71 1119.62 1085.38 1110.49 1085.34 C 1099.91 1085.38 1089.34 1085.3 1078.76 1085.12 C 1076.33 1092.85 1070.72 1105.73 1067.04 1112.81 C 1053.93 1112.61 1042.02 1112.55 1028.92 1113 C 1030.14 1108.23 1048.3 1068.06 1051.88 1060.38 C 1070.9 1019.63 1088.35 972.614 1109.25 933.418 z M 1093.48 1054.5 C 1098.6 1054.27 1103.73 1054.14 1108.85 1054.11 L 1126.15 1054.09 C 1123.93 1048.67 1112.23 1019.51 1109.48 1016.66 C 1104.12 1029 1098.25 1041.99 1093.48 1054.5 z"/>
<path transform="translate(0,0)" fill="rgb(247, 242, 240)" d="M 1686.37 931.35 C 1726.88 931.779 1768.49 931.307 1809.02 931.119 L 1808.99 966.899 L 1764.28 967.107 C 1764.99 974.511 1764.31 992.478 1764.28 1000.99 L 1764.14 1071.25 L 1764.41 1111.67 C 1752.28 1111.83 1741.17 1111.9 1729.04 1111.49 L 1729.1 966.833 L 1684.55 967.041 C 1684.47 960.036 1682.88 935.172 1686.37 931.35 z"/>
<path transform="translate(0,0)" fill="rgb(218,183,101)" d="M 787.498 934.096 C 799.074 933.565 813.01 933.851 824.758 933.807 C 823.449 949.091 824.005 970.976 823.986 986.764 L 824.085 1076.32 C 848.058 1076.2 872.031 1076.27 896.002 1076.54 L 895.991 1112.82 C 860.98 1111.47 823.114 1113.58 787.301 1112.53 L 787.085 1004.86 C 787.063 982.327 786.35 956.18 787.498 934.096 z"/>
</svg>
